# xmcd
# 
# Track frame offsets:
#     150
#     17272
#     39712
#     57110
#     75567
#     93782
#     115322
#     136345
#     158815
#     180484
#     208965
# 
# Disc length: 3076
# 
# Revision: 3
# Processed by: cddbd v1.5.2PL0 Copyright (c) Steve Scherf et al.
# Submitted via: fre:ac v1.0.27
# 
DISCID=840c020b
DTITLE=田震 - 田震
DYEAR=1996
DGENRE=Country
TTITLE0=野花
TTITLE1=自由自在
TTITLE2=執著（鄉搖版）
TTITLE3=你是否和我一樣
TTITLE4=怕黑的女人
TTITLE5=回了又去，去了再回
TTITLE6=誰為我停留
TTITLE7=愛情守望者
TTITLE8=猜度
TTITLE9=沙粒，螞蟻
TTITLE10=陽光下的田震
EXTD=YEAR: 1996
EXTT0=
EXTT1=
EXTT2=
EXTT3=
EXTT4=
EXTT5=
EXTT6=
EXTT7=
EXTT8=
EXTT9=
EXTT10=
PLAYORDER=
